HIERARCHY
ROOT Elbow
{
	OFFSET	0.00	0.00	0.00
	CHANNELS 6 Xposition Yposition Zposition Zrotation Xrotation Yrotation
	JOINT L_Wrist
	{
		OFFSET	 0.208349	 0.000000	 0.000000
		CHANNELS 3 Zrotation Xrotation Yrotation
		JOINT L_index_Proximal
		{
			OFFSET	 0.093499	 0.010637	-0.002083
			CHANNELS 3 Zrotation Xrotation Yrotation
			JOINT L_index_b
			{
				OFFSET	 0.033153	 0.000000	 0.000000
				CHANNELS 3 Zrotation Xrotation Yrotation
				JOINT L_index_c
				{
					OFFSET	 0.018651	 0.000000	 0.000000
					CHANNELS 3 Zrotation Xrotation Yrotation
					End Site
					{
						OFFSET	 0.018651	 0.000000	 0.000000
					}
				}
			}
		}
		JOINT L_middle_Proximal
		{
			OFFSET	 0.090632	-0.006115	-0.003750
			CHANNELS 3 Zrotation Xrotation Yrotation
			JOINT L_middle_b
			{
				OFFSET	 0.037194	 0.000000	 0.000000
				CHANNELS 3 Zrotation Xrotation Yrotation
				JOINT L_middle_c
				{
					OFFSET	 0.021943	 0.000000	 0.000000
					CHANNELS 3 Zrotation Xrotation Yrotation
					End Site
					{
						OFFSET	 0.021943	 0.000000	 0.000000
					}
				}
			}
		}
		JOINT L_pinky_Proximal
		{
			OFFSET	 0.074015	-0.035449	-0.000417
			CHANNELS 3 Zrotation Xrotation Yrotation
			JOINT L_pinky_b
			{
				OFFSET	 0.027285	 0.000000	 0.000000
				CHANNELS 3 Zrotation Xrotation Yrotation
				JOINT L_pinky_c
				{
					OFFSET	 0.015093	 0.000000	 0.000000
					CHANNELS 3 Zrotation Xrotation Yrotation
					End Site
					{
						OFFSET	 0.015093	 0.000000	 0.000000
					}
				}
			}
		}
		JOINT L_ring_Proximal
		{
			OFFSET	 0.082801	-0.021859	-0.003750
			CHANNELS 3 Zrotation Xrotation Yrotation
			JOINT L_ring_b
			{
				OFFSET	 0.034478	 0.000000	 0.000000
				CHANNELS 3 Zrotation Xrotation Yrotation
				JOINT L_ring_c
				{
					OFFSET	 0.021377	 0.000000	 0.000000
					CHANNELS 3 Zrotation Xrotation Yrotation
					End Site
					{
						OFFSET	 0.021377	 0.000000	 0.000000
					}
				}
			}
		}
		JOINT L_thumb_Proximal
		{
			OFFSET	 0.030306	 0.018528	 0.004584
			CHANNELS 3 Zrotation Xrotation Yrotation
			JOINT L_thumb_a
			{
				OFFSET	 0.038520	 0.000000	 0.000000
				CHANNELS 3 Zrotation Xrotation Yrotation
				JOINT L_thumb_b
				{
					OFFSET	 0.026310	 0.000000	 0.000000
					CHANNELS 3 Zrotation Xrotation Yrotation
					End Site
					{
						OFFSET	 0.026310	 0.000000	 0.000000
					}
				}
			}
		}
	}
}
MOTION
Frames:    7
Frame Time: 0.01666667
 0.522124	 0.117621	 0.674905	 66.001890	 40.566410	-177.580500	-0.371309	 0.086832	 0.492558	-3.526875	 1.836994	-50.739000	 1.876641	-0.487074	-29.095290	-0.315355	 0.051564	-18.569050	-12.486310	-7.167810	-41.795800	 1.892511	-0.630191	-36.830640	 1.067848	-0.265872	-27.956420	-29.811030	-18.514150	-46.278800	 2.780949	-1.156719	-45.160660	 1.417849	-0.625897	-47.631980	-19.184210	-11.240700	-41.544930	 1.517461	-0.615277	-44.139330	 1.853809	-0.600800	-35.908020	 36.700660	 58.882920	-48.454960	-1.532135	 0.166847	-12.428590	 0.932708	-0.107533	-13.154880
 0.522343	 0.117727	 0.674388	 65.851760	 41.441170	-177.419300	-0.505772	 0.056179	 0.318658	-3.425622	 1.794950	-50.905460	 1.985523	-0.519856	-29.343990	-0.342151	 0.057502	-19.035070	-12.468910	-7.166312	-41.796500	 1.895632	-0.633595	-36.961900	 0.858612	-0.213670	-27.952510	-29.754090	-18.548290	-45.627300	 2.674373	-1.102881	-44.813070	 1.214168	-0.534607	-47.522640	-19.198950	-11.226600	-41.082410	 1.345633	-0.545563	-44.137540	 1.617819	-0.520567	-35.668190	 36.599640	 58.938120	-48.287650	-1.438258	 0.157854	-12.524980	 0.890469	-0.105271	-13.491610
 0.522532	 0.117891	 0.673827	 65.668470	 42.703530	-177.211300	-0.623576	 0.022227	 0.126008	-3.402178	 1.806837	-51.272350	 2.251165	-0.594177	-29.568810	-0.415319	 0.069867	-19.089630	-12.494590	-7.135127	-42.022780	 1.834808	-0.613885	-36.996650	 0.638950	-0.158331	-27.835700	-29.858920	-18.493170	-45.432050	 2.806692	-1.138019	-44.129250	 0.772064	-0.343673	-48.008560	-19.165400	-11.230340	-40.990130	 1.328734	-0.536274	-43.952250	 1.270004	-0.410377	-35.819780	 36.642010	 58.917080	-48.509770	-1.561166	 0.174750	-12.770710	 0.643790	-0.079352	-14.076780
 0.522630	 0.118228	 0.673284	 65.462000	 44.665060	-176.956900	-0.665789	-0.013021	-0.074007	-3.594252	 1.952097	-51.626270	 2.245199	-0.601580	-30.005260	-0.613327	 0.102903	-19.042490	-12.810030	-6.960747	-42.159270	 1.602993	-0.535114	-36.918840	 0.211117	-0.052299	-27.874150	-30.185500	-18.330630	-45.130410	 2.849220	-1.149336	-43.927580	 0.341022	-0.152550	-48.250280	-19.328070	-11.135320	-41.001090	 1.149041	-0.463210	-43.913200	 0.990555	-0.321905	-36.020200	 36.331970	 59.066390	-48.074810	-1.577309	 0.183540	-13.267470	 1.038991	-0.139753	-15.362480
 0.522597	 0.118690	 0.672765	 65.186290	 47.372710	-176.620500	-0.910057	-0.032176	-0.182650	-3.768761	 2.100684	-52.129990	 1.831931	-0.516717	-31.562460	-0.733043	 0.126296	-19.496230	-13.324460	-6.709383	-41.711010	 1.303257	-0.437197	-37.095200	-0.070749	 0.017662	-27.940400	-30.600790	-18.133390	-44.544450	 2.647718	-1.077783	-44.300180	-0.181068	 0.081317	-48.283310	-19.527860	-11.020550	-40.693460	 0.398446	-0.163879	-44.881470	 0.194483	-0.063608	-36.573380	 35.545420	 59.367700	-47.262090	-1.571747	 0.192019	-13.923270	 1.673495	-0.245622	-16.727640
 0.522421	 0.119172	 0.672177	 64.939190	 50.296810	-176.262800	-1.153411	-0.041522	-0.235453	-4.118614	 2.306992	-51.995470	 0.763388	-0.233632	-34.274220	-1.080105	 0.199626	-20.846060	-13.748760	-6.533060	-41.040680	 1.061485	-0.366170	-38.117260	-0.247008	 0.064089	-28.804710	-30.948110	-17.974740	-44.360930	 2.619702	-1.091085	-45.235090	 0.038835	-0.017345	-48.833520	-19.594770	-10.979460	-41.041420	-0.027654	 0.013206	-46.611680	 0.069875	-0.022982	-37.744190	 34.273650	 59.809990	-45.792220	-1.313435	 0.166455	-14.436600	 2.042135	-0.325345	-18.131660
 0.522345	 0.119979	 0.671681	 64.559020	 53.333870	-175.775100	-1.439993	-0.013189	-0.074827	-4.575624	 2.562292	-51.706080	-0.253706	 0.085419	-36.630070	-1.569539	 0.309245	-22.220850	-14.039790	-6.411536	-40.699900	 0.969726	-0.347350	-39.503480	-0.490601	 0.131109	-29.742200	-31.307810	-17.805680	-44.398220	 2.437870	-1.048559	-46.573930	 0.127018	-0.058146	-49.595480	-19.657060	-10.938820	-41.912010	-0.059042	 0.028537	-48.940560	 0.200467	-0.070147	-39.007230	 33.051360	 60.289710	-43.387480	-1.135305	 0.152118	-15.252640	 2.346071	-0.421417	-20.400590
